<?xml version="1.0" encoding="UTF-8"?><svg id="b" xmlns="http://www.w3.org/2000/svg" viewBox="0 0 677.32 556.43"><defs><style>.d,.e{stroke-width:0px;}.e{fill:#f6e939;}</style></defs><g id="c"><path class="d" d="m666.79,73.54c-7.37-29.52-12.39-38.88-24.57-57.14-12.49-18.72-39.1-25.55-53.19,2-8.71,17.03-14.48,35.55-21.76,53.33-1.24,3.02-6.92,10.03-9.25,11.67-14.66,10.26-25.45,13.12-40.71,18.88-21.4,8.08-46.75,12.99-70.46,16.39-25.81,3.71-51.89,3.89-77.92,4.46-55.99.55-90.31.56-157.52.56-27.7,0-55.49,1.87-83.02,4.88-20.12,2.2-40.28,6.6-58.11,17.2-13.9,8.26-27.05,16.94-38.09,29.79C9.95,201.43-1.54,229.93.17,264.21c.98,19.75,3.26,39.06,10.34,57.78,5.14,13.61,7.25,16.9,10.7,25.46,15.41,32.68,36.82,57.85,65.17,79.45,20.63,15.72,41.06,26.87,68.06,39.11,1.75.64,5.13,1.93,5.13,1.93,0,0,0,4.03,0,6.89.02,18.3,0,36.6,0,54.91,0,19.04,8.04,26.58,26.93,26.65,19.09.06,38.19.06,57.28,0,18.69-.06,26.35-7.88,26.35-26.72,0-99.74,0-199.47,0-299.21v-9.36h120.89v9.72c0,99.74,0,199.47,0,299.21,0,18.8,7.56,26.32,26.6,26.37,18.83.05,37.66.04,56.49,0,19.23-.04,26.79-7.7,26.79-27.06,0-96.02,0-192.04,0-288.07v-9.38c16.08,4.4,26.56,7,39.3,10.26,15.46,3.96,23.42,11.65,29.58,26.61,7.32,17.78,13.95,36.02,22.61,53.09,7.9,15.57,26.43,18.69,40.91,9,11.15-7.46,16.21-17.31,22.05-28.49,12-28.3,17.9-59.1,20.17-89.75,3.45-46.54,2.56-93.74-8.75-139.06Zm-12.3,133.87c-2.57,30.3-3.83,60.78-17.92,88.62-2.74,5.41-6.32,10.73-11.17,15.59-6.97,6.97-13.05,7.67-17.31-1.17-7.46-15.47-16.02-40.51-23.61-55.66-6.6-13.16-14.19-24.36-27.83-28.37-23.56-6.94-47.57-12.41-71.48-18.1-1.35-.32-5.38-1.25-5.38-1.25,0,0-.02,10.6-.02,12.99,0,101.6,0,203.2,0,304.8v11.55h-69.01v-11.18c0-104.25,0-208.51,0-312.76,0-5.29-.05-11.33-.05-11.33,0,0-5.2,0-11.1,0-47.21-.07-92.48,0-141.63,0-3.91-.03-9.34,0-9.34,0,0,0-.02,5.66-.02,9.08.21,104.78.15,209.57.14,314.35v12.01h-68.87c0-3.4,0-6.73,0-10.05,0-20.96-.43-41.92,0-62.87.07-3.68,0-9.4,0-9.4,0,0-5.5-2.19-8.6-3.31-29.86-10.76-57.94-27.4-82.49-47.89-36.89-30.78-58.34-67.09-67.19-114.77-13.95-75.14,37.64-125.59,87-137.02,33.83-7.83,68.35-8.16,102.87-8.3,64.18-.26,128.46,1.75,192.5-1.31,47.75-2.29,95.74-8.9,140.5-27.9,12.44-5.28,21.66-10.27,31.7-19.28,5.81-5.21,10.3-17.88,13.47-25.83,4.99-12.54,9.02-25.5,14.63-37.74,5.04-11.01,11.45-13.64,20-5.09,9.78,9.78,15.43,24.88,21.56,45.81,12.06,41.23,12.81,86.58,8.63,135.8Z"/><path class="e" d="m645.86,71.61c-6.12-20.94-11.77-36.03-21.56-45.81-8.55-8.55-14.96-5.92-20,5.09-5.61,12.24-9.64,25.21-14.63,37.74-3.17,7.96-7.66,20.62-13.47,25.83-10.04,9.01-19.26,14-31.7,19.28-44.77,19-92.75,25.61-140.5,27.9-64.04,3.07-128.33,1.05-192.5,1.31-34.52.14-69.04.46-102.87,8.3-49.36,11.43-100.95,61.88-87,137.02,8.85,47.68,30.3,83.99,67.19,114.77,24.56,20.49,52.63,37.13,82.49,47.89,3.11,1.12,8.6,3.31,8.6,3.31,0,0,.07,5.72,0,9.4-.43,20.95,0,41.91,0,62.87,0,3.32,0,6.65,0,10.05h68.87v-12.01c0-104.78.07-209.57-.14-314.35,0-3.42.02-9.08.02-9.08,0,0,5.42-.04,9.34,0,49.14,0,94.42-.08,141.63,0,5.9,0,11.1,0,11.1,0,0,0,.05,6.05.05,11.33,0,104.25,0,208.51,0,312.76v11.18h69.01v-11.55c0-101.6,0-203.2,0-304.8,0-2.39.02-12.99.02-12.99,0,0,4.03.93,5.38,1.25,23.91,5.69,47.92,11.16,71.48,18.1,13.64,4.02,21.23,15.21,27.83,28.37,7.6,15.15,16.15,40.19,23.61,55.66,4.26,8.84,10.34,8.14,17.31,1.17,4.85-4.85,8.43-10.17,11.17-15.59,14.09-27.83,15.35-58.32,17.92-88.62,4.17-49.22,3.43-94.56-8.63-135.8ZM179.9,409.16c-1.49-.39-2.77-.67-3.91-.97-64.13-16.82-107.37-72.73-106.65-139.31.36-33.31,22.78-67.93,66.48-67.93,28.97.11,29.02.07,44.08.07v208.14Z"/><path class="d" d="m179.9,201.02v208.14c-1.49-.39-2.77-.67-3.91-.97-64.13-16.82-107.37-72.73-106.65-139.31.36-33.31,22.78-67.93,66.48-67.93,28.97.11,29.02.07,44.08.07Zm-20.33,178.88v-159.18c-8.85,0-17.07-.31-25.26.06-23.7,1.07-41.63,16.81-43.73,40.61-1.12,12.63-.18,25.99,2.83,38.29,3.07,12.56,9.02,25.96,15.81,37.05,13.09,21.35,27.9,33.1,50.34,43.17Z"/></g></svg>